<mxfile host="6c661938-e0c4-4aa8-9cd7-0aeef7f50309" modified="2020-07-30T13:24:21.218Z" agent="5.0 (X11; Linux x86_64) AppleWebKit/537.36 (KHTML, like Gecko) Code/1.47.3 Chrome/78.0.3904.130 Electron/7.3.2 Safari/537.36" etag="S3limTs-KfpBmyXjHPVd" version="13.1.3">
    <diagram id="6hGFLwfOUW9BJ-s0fimq" name="Page-1">
        <mxGraphModel dx="1410" dy="468" grid="1" gridSize="10" guides="1" tooltips="1" connect="1" arrows="1" fold="1" page="1" pageScale="1" pageWidth="827" pageHeight="1169" math="0" shadow="0">
            <root>
                <mxCell id="0"/>
                <mxCell id="1" parent="0"/>
                <mxCell id="2" value="" style="rounded=0;whiteSpace=wrap;html=1;" parent="1" vertex="1">
                    <mxGeometry x="-80" y="110" width="730" height="550" as="geometry"/>
                </mxCell>
                <mxCell id="3" value="" style="rounded=0;whiteSpace=wrap;html=1;" parent="1" vertex="1">
                    <mxGeometry width="730" height="60" as="geometry"/>
                </mxCell>
                <mxCell id="4" value="logo" style="ellipse;whiteSpace=wrap;html=1;aspect=fixed;fillColor=#999999;" parent="1" vertex="1">
                    <mxGeometry x="20" y="5" width="50" height="50" as="geometry"/>
                </mxCell>
                <mxCell id="5" value="" style="ellipse;whiteSpace=wrap;html=1;aspect=fixed;fillColor=#ffe6cc;strokeColor=#d79b00;" parent="1" vertex="1">
                    <mxGeometry x="690" y="15" width="30" height="30" as="geometry"/>
                </mxCell>
                <mxCell id="6" value="" style="triangle;whiteSpace=wrap;html=1;fillColor=#1A1A1A;rotation=-90;direction=west;" parent="1" vertex="1">
                    <mxGeometry x="650" y="15" width="20" height="30" as="geometry"/>
                </mxCell>
                <mxCell id="7" value="" style="rounded=0;whiteSpace=wrap;html=1;fillColor=#f5f5f5;strokeColor=#666666;fontColor=#333333;" parent="1" vertex="1">
                    <mxGeometry x="640" y="60" width="140" height="490" as="geometry"/>
                </mxCell>
                <mxCell id="9" value="" style="rounded=0;whiteSpace=wrap;html=1;fillColor=#f5f5f5;strokeColor=#666666;fontColor=#333333;" parent="1" vertex="1">
                    <mxGeometry x="675" y="60" width="50" height="490" as="geometry"/>
                </mxCell>
                <mxCell id="10" value="" style="shape=manualInput;whiteSpace=wrap;html=1;fillColor=#333333;" parent="1" vertex="1">
                    <mxGeometry x="690" y="70" width="30" height="40" as="geometry"/>
                </mxCell>
                <mxCell id="11" value="" style="shape=lineEllipse;perimeter=ellipsePerimeter;whiteSpace=wrap;html=1;backgroundOutline=1;fillColor=#333333;" parent="1" vertex="1">
                    <mxGeometry x="690" y="150" width="30" height="30" as="geometry"/>
                </mxCell>
                <mxCell id="12" value="" style="shape=actor;whiteSpace=wrap;html=1;fillColor=#fff2cc;strokeColor=#d6b656;" parent="1" vertex="1">
                    <mxGeometry x="697.5" y="17.5" width="15" height="25" as="geometry"/>
                </mxCell>
                <mxCell id="13" value="" style="shape=sortShape;perimeter=rhombusPerimeter;whiteSpace=wrap;html=1;fillColor=#333333;" parent="1" vertex="1">
                    <mxGeometry x="685" y="200" width="40" height="30" as="geometry"/>
                </mxCell>
                <mxCell id="14" value="" style="shape=collate;whiteSpace=wrap;html=1;fillColor=#333333;" parent="1" vertex="1">
                    <mxGeometry x="690" y="255" width="35" height="25" as="geometry"/>
                </mxCell>
                <mxCell id="15" value="" style="ellipse;whiteSpace=wrap;html=1;aspect=fixed;fillColor=#333333;" parent="1" vertex="1">
                    <mxGeometry x="700" y="120" width="10" height="10" as="geometry"/>
                </mxCell>
                <mxCell id="27" value="&lt;h1&gt;Gruplar&lt;/h1&gt;" style="text;html=1;strokeColor=none;fillColor=none;spacing=5;spacingTop=-20;whiteSpace=wrap;overflow=hidden;rounded=0;" parent="1" vertex="1">
                    <mxGeometry x="30" y="90" width="190" height="40" as="geometry"/>
                </mxCell>
                <mxCell id="30" value="Text" style="text;html=1;strokeColor=none;fillColor=none;align=center;verticalAlign=middle;whiteSpace=wrap;rounded=0;" parent="1" vertex="1">
                    <mxGeometry x="610" y="100" width="40" height="20" as="geometry"/>
                </mxCell>
                <mxCell id="31" value="Text" style="text;html=1;strokeColor=none;fillColor=none;align=center;verticalAlign=middle;whiteSpace=wrap;rounded=0;" parent="1" vertex="1">
                    <mxGeometry x="610" y="130" width="40" height="20" as="geometry"/>
                </mxCell>
                <mxCell id="32" value="Text" style="text;html=1;strokeColor=none;fillColor=none;align=center;verticalAlign=middle;whiteSpace=wrap;rounded=0;" parent="1" vertex="1">
                    <mxGeometry x="610" y="155" width="40" height="20" as="geometry"/>
                </mxCell>
                <mxCell id="33" value="Text" style="text;html=1;strokeColor=none;fillColor=none;align=center;verticalAlign=middle;whiteSpace=wrap;rounded=0;" parent="1" vertex="1">
                    <mxGeometry x="610" y="180" width="40" height="20" as="geometry"/>
                </mxCell>
                <mxCell id="38" value="" style="rounded=1;whiteSpace=wrap;html=1;fillColor=#f5f5f5;strokeColor=#666666;fontColor=#333333;" parent="1" vertex="1">
                    <mxGeometry x="30" y="140" width="120" height="140" as="geometry"/>
                </mxCell>
                <mxCell id="43" value="" style="shape=note;whiteSpace=wrap;html=1;backgroundOutline=1;darkOpacity=0.05;fillColor=#999999;" parent="1" vertex="1">
                    <mxGeometry x="60" y="165" width="80" height="100" as="geometry"/>
                </mxCell>
                <mxCell id="44" value="" style="shape=cross;whiteSpace=wrap;html=1;fillColor=#1A1A1A;" parent="1" vertex="1">
                    <mxGeometry x="75" y="180" width="30" height="30" as="geometry"/>
                </mxCell>
                <mxCell id="45" value="Add group" style="text;html=1;strokeColor=none;fillColor=none;align=center;verticalAlign=middle;whiteSpace=wrap;rounded=0;" parent="1" vertex="1">
                    <mxGeometry x="70" y="220" width="40" height="20" as="geometry"/>
                </mxCell>
                <mxCell id="52" value="" style="rounded=1;whiteSpace=wrap;html=1;fillColor=#f5f5f5;strokeColor=#666666;fontColor=#333333;" vertex="1" parent="1">
                    <mxGeometry x="294" y="140" width="106" height="125" as="geometry"/>
                </mxCell>
                <mxCell id="55" value="Manage&lt;br&gt;groups" style="text;html=1;resizable=0;autosize=1;align=center;verticalAlign=middle;points=[];fillColor=none;strokeColor=none;rounded=0;" vertex="1" parent="1">
                    <mxGeometry x="317" y="220" width="60" height="30" as="geometry"/>
                </mxCell>
                <mxCell id="61" value="Telebeler" style="rounded=0;whiteSpace=wrap;html=1;" vertex="1" parent="1">
                    <mxGeometry x="10" y="420" width="150" height="70" as="geometry"/>
                </mxCell>
                <mxCell id="62" value="" style="rounded=1;whiteSpace=wrap;html=1;fillColor=#f5f5f5;strokeColor=#666666;fontColor=#333333;" vertex="1" parent="1">
                    <mxGeometry x="30" y="540" width="120" height="140" as="geometry"/>
                </mxCell>
                <mxCell id="63" value="&lt;br&gt;&lt;br&gt;&lt;br&gt;Add&lt;br&gt;Student" style="shape=note;whiteSpace=wrap;html=1;backgroundOutline=1;darkOpacity=0.05;fillColor=#999999;" vertex="1" parent="1">
                    <mxGeometry x="50" y="560" width="80" height="100" as="geometry"/>
                </mxCell>
                <mxCell id="65" value="" style="shape=actor;whiteSpace=wrap;html=1;" vertex="1" parent="1">
                    <mxGeometry x="75" y="570" width="30" height="50" as="geometry"/>
                </mxCell>
                <mxCell id="69" value="" style="shape=note;whiteSpace=wrap;html=1;backgroundOutline=1;darkOpacity=0.05;fillColor=#999999;" vertex="1" parent="1">
                    <mxGeometry x="307" y="155" width="80" height="100" as="geometry"/>
                </mxCell>
                <mxCell id="70" value="" style="ellipse;shape=cloud;whiteSpace=wrap;html=1;" vertex="1" parent="1">
                    <mxGeometry x="307" y="180" width="73" height="30" as="geometry"/>
                </mxCell>
                <mxCell id="71" value="Manage&lt;br&gt;Groups&lt;br&gt;" style="text;html=1;strokeColor=none;fillColor=none;align=center;verticalAlign=middle;whiteSpace=wrap;rounded=0;" vertex="1" parent="1">
                    <mxGeometry x="327" y="225" width="40" height="10" as="geometry"/>
                </mxCell>
                <mxCell id="72" value="" style="endArrow=classic;html=1;" edge="1" parent="1" source="2" target="2">
                    <mxGeometry width="50" height="50" relative="1" as="geometry">
                        <mxPoint x="380" y="340" as="sourcePoint"/>
                        <mxPoint x="430" y="290" as="targetPoint"/>
                    </mxGeometry>
                </mxCell>
                <mxCell id="74" value="" style="endArrow=none;html=1;" edge="1" parent="1">
                    <mxGeometry width="50" height="50" relative="1" as="geometry">
                        <mxPoint x="277" y="315" as="sourcePoint"/>
                        <mxPoint x="327" y="265" as="targetPoint"/>
                    </mxGeometry>
                </mxCell>
                <mxCell id="76" value="Add&lt;br&gt;Student" style="ellipse;whiteSpace=wrap;html=1;" vertex="1" parent="1">
                    <mxGeometry x="230" y="320" width="80" height="60" as="geometry"/>
                </mxCell>
                <mxCell id="77" value="" style="endArrow=none;html=1;" edge="1" parent="1">
                    <mxGeometry width="50" height="50" relative="1" as="geometry">
                        <mxPoint x="377" y="259" as="sourcePoint"/>
                        <mxPoint x="377" y="270" as="targetPoint"/>
                        <Array as="points">
                            <mxPoint x="377" y="259"/>
                            <mxPoint x="377" y="370"/>
                        </Array>
                    </mxGeometry>
                </mxCell>
                <mxCell id="78" value="Remove&lt;br&gt;Student" style="ellipse;whiteSpace=wrap;html=1;aspect=fixed;" vertex="1" parent="1">
                    <mxGeometry x="350" y="360" width="80" height="80" as="geometry"/>
                </mxCell>
                <mxCell id="79" value="" style="endArrow=none;html=1;" edge="1" parent="1">
                    <mxGeometry width="50" height="50" relative="1" as="geometry">
                        <mxPoint x="400" y="265" as="sourcePoint"/>
                        <mxPoint x="400" y="276" as="targetPoint"/>
                        <Array as="points">
                            <mxPoint x="400" y="265"/>
                            <mxPoint x="400" y="330"/>
                        </Array>
                    </mxGeometry>
                </mxCell>
                <mxCell id="80" value="Appoint&lt;br&gt;teachers" style="ellipse;whiteSpace=wrap;html=1;aspect=fixed;" vertex="1" parent="1">
                    <mxGeometry x="400" y="280" width="80" height="80" as="geometry"/>
                </mxCell>
                <mxCell id="84" value="" style="rounded=1;whiteSpace=wrap;html=1;fillColor=#f5f5f5;strokeColor=#666666;fontColor=#333333;" vertex="1" parent="1">
                    <mxGeometry x="190" y="550" width="120" height="140" as="geometry"/>
                </mxCell>
                <mxCell id="87" style="edgeStyle=elbowEdgeStyle;rounded=0;orthogonalLoop=1;jettySize=auto;html=1;exitX=0.75;exitY=0.25;exitDx=0;exitDy=0;exitPerimeter=0;" edge="1" parent="1" source="85" target="2">
                    <mxGeometry relative="1" as="geometry"/>
                </mxCell>
                <mxCell id="86" value="&lt;br&gt;&lt;br&gt;&lt;br&gt;Add&lt;br&gt;Student" style="shape=note;whiteSpace=wrap;html=1;backgroundOutline=1;darkOpacity=0.05;fillColor=#999999;" vertex="1" parent="1">
                    <mxGeometry x="214" y="570" width="80" height="100" as="geometry"/>
                </mxCell>
                <mxCell id="85" value="" style="shape=actor;whiteSpace=wrap;html=1;" vertex="1" parent="1">
                    <mxGeometry x="239" y="570" width="30" height="50" as="geometry"/>
                </mxCell>
            </root>
        </mxGraphModel>
    </diagram>
</mxfile>